<svg xmlns="http://www.w3.org/2000/svg" version="1.1" xmlns:xlink="http://www.w3.org/1999/xlink" width="512" height="512" x="0" y="0" viewBox="0 0 60 60" style="enable-background:new 0 0 512 512" class="">
  <defs></defs>
  <g style="" transform="matrix(1.249514, 0, 0, 1.249514, -0.767152, -13.322035)">
    <g style="" transform="matrix(0.830254, 0, 0, 0.830254, -0.216294, 9.821985)">
      <path fill="#cb8252" d="M32 5h10a3 3 0 0 1 3 3v48a3 3 0 0 1-3 3H4a3 3 0 0 1-3-3V8a3 3 0 0 1 3-3z" opacity="1" data-original="#cb8252" class=""></path>
      <path fill="#ecf0f1" d="M32 9h9V55H5V9h9z" opacity="1" data-original="#ecf0f1" class=""></path>
      <path fill="#95a5a5" d="M32 5v4a1 1 0 0 1-1 1H15a1 1 0 0 1-1-1V5a1 1 0 0 1 1-1h4.13a4 4 0 0 1 7.74 0H31a1 1 0 0 1 1 1z" opacity="1" data-original="#95a5a5"></path>
      <rect width="9" height="9" x="9" y="14" fill="#d1d4d1" rx="1" opacity="1" data-original="#d1d4d1" class=""></rect>
      <rect width="9" height="9" x="9" y="28" fill="#d1d4d1" rx="1" opacity="1" data-original="#d1d4d1" class=""></rect>
      <rect width="9" height="9" x="9" y="42" fill="#d1d4d1" rx="1" opacity="1" data-original="#d1d4d1" class=""></rect>
      <path fill="#4fba6f" d="M14 20a1 1 0 0 1-.707-.293l-1-1a1 1 0 0 1 1.414-1.414l.293.293 4.293-4.293a1 1 0 0 1 1.414 1.414l-5 5A1 1 0 0 1 14 20zM14 34a1 1 0 0 1-.707-.293l-1-1a1 1 0 0 1 1.414-1.414l.293.293 4.293-4.293a1 1 0 0 1 1.414 1.414l-5 5A1 1 0 0 1 14 34zM14 48a1 1 0 0 1-.707-.293l-1-1a1 1 0 0 1 1.414-1.414l.293.293 4.293-4.293a1 1 0 0 1 1.414 1.414l-5 5A1 1 0 0 1 14 48z" opacity="1" data-original="#4fba6f" class=""></path>
      <g fill="#3f5c6c">
        <path d="M36 17H23a1 1 0 0 1 0-2h13a1 1 0 0 1 0 2zM30 22h-7a1 1 0 0 1 0-2h7a1 1 0 0 1 0 2zM36 31H23a1 1 0 0 1 0-2h13a1 1 0 0 1 0 2zM30 36h-7a1 1 0 0 1 0-2h7a1 1 0 0 1 0 2zM34.91 45H23a1 1 0 0 1 0-2h11.91a1 1 0 0 1 0 2zM30 50h-7a1 1 0 0 1 0-2h7a1 1 0 0 1 0 2z" fill="#3f5c6c" opacity="1" data-original="#3f5c6c" class=""></path>
      </g>
      <path fill="#f9eab0" d="m41.51 47.51-.01.01-6.31 1.45a.969.969 0 0 1-1.17-1.15l1.47-6.32 3.01 3z" opacity="1" data-original="#f9eab0"></path>
      <path fill="#f0c419" d="M51.74 31.26 38.5 44.5l-3.01-3v-.01l13.24-13.23z" opacity="1" data-original="#f0c419" class=""></path>
      <path fill="#f29c1f" d="M38.493 44.5 51.73 31.264l3.01 3.01L41.501 47.51z" opacity="1" data-original="#f29c1f" class=""></path>
    </g>
  </g>
  <rect width="19.369" height="19.369" x="34.102" y="8.52" fill="#d1d4d1" rx="1" opacity="1" data-original="#d1d4d1" class="" style="stroke-width: 8.533;"></rect>
  <path fill="#4fba6f" d="M 41.614 25.008 C 40.87 25.008 40.156 24.713 39.632 24.186 L 36.825 21.382 C 35.326 19.83 36.069 17.235 38.165 16.711 C 39.104 16.478 40.096 16.745 40.792 17.415 L 41.614 18.237 L 53.656 6.195 C 55.21 4.694 57.805 5.441 58.327 7.535 C 58.559 8.473 58.293 9.466 57.623 10.162 L 43.598 24.186 C 43.07 24.713 42.357 25.008 41.614 25.008 Z" opacity="1" data-original="#4fba6f" class="" style="stroke-width: 1;"></path>
  <path fill="#95a5a5" d="M 58.884 31.38 L 55.761 34.503 L 52.638 31.38 L 49.516 28.268 L 52.628 25.145 L 52.638 25.145 L 58.873 31.37 L 58.873 31.38 L 58.884 31.38 Z" opacity="1" data-original="#95a5a5"></path>
  <path fill="#fb7b76" d="M 58.873 31.37 L 52.638 25.145 C 55.034 22.746 59.129 23.839 60.01 27.114 C 60.418 28.634 59.985 30.256 58.873 31.37 Z" opacity="1" data-original="#fb7b76" class=""></path>
</svg>