<svg xmlns="http://www.w3.org/2000/svg" version="1.1" xmlns:xlink="http://www.w3.org/1999/xlink" width="512" height="512" x="0" y="0" viewBox="0 0 16.933 16.933" style="enable-background:new 0 0 512 512" class="">
  <g transform="matrix(0.028204, 0, 0, 0.028204, 4.648862, 0.625259)" style="">
    <path fill="#463c4b" d="M120 248H88v-88c0-4.243 1.686-8.313 4.687-11.313l56-56c3-3.001 7.07-4.687 11.313-4.687h88v32h-81.373L120 166.627z" opacity="1" data-original="#463c4b" class=""></path>
    <path fill="#463c4b" d="M120 488h272c17.673 0 32-14.327 32-32V120c0-17.673-14.327-32-32-32H245.255a31.996 31.996 0 0 0-22.627 9.373L97.373 222.627A32 32 0 0 0 88 245.255V456c0 17.673 14.327 32 32 32z" opacity="1" data-original="#463c4b" class=""></path>
    <path fill="#555a6e" d="M328 120c0-17.673-14.327-32-32-32h-50.745a32 32 0 0 0-22.627 9.373L97.373 222.627A31.998 31.998 0 0 0 88 245.255V456c0 17.673 14.327 32 32 32h176c17.673 0 32-14.327 32-32z" opacity="1" data-original="#555a6e" class=""></path>
    <path d="M136 424V258.509c0-4.243 1.686-8.313 4.686-11.314l106.509-106.509A15.998 15.998 0 0 1 258.509 136H272a8 8 0 0 1 8 8v280c0 8.837-7.163 16-16 16H152c-8.837 0-16-7.163-16-16z" opacity="1" data-original="#d7e6f0" class="" style="fill: rgb(143, 212, 219);"></path>
    <path fill="#f04b37" d="M384 72H272a8 8 0 0 1-8-8V32a8 8 0 0 1 8-8h112a8 8 0 0 1 8 8v32a8 8 0 0 1-8 8z" opacity="1" data-original="#f04b37"></path>
    <path fill="#d73228" d="M384 72h-56V40a8 8 0 0 1 8-8h56v32a8 8 0 0 1-8 8z" opacity="1" data-original="#d73228"></path>
    <path fill="#463c4b" d="M280 72h96v16h-96z" opacity="1" data-original="#463c4b" class=""></path>
    <path fill="#f5871e" d="M218.458 253.154A13.177 13.177 0 0 0 208 248c-4.1 0-7.961 1.902-10.458 5.154C187.079 266.781 160 304.334 160 328c0 26.51 21.49 48 48 48s48-21.49 48-48c0-23.666-27.079-61.219-37.542-74.846z" opacity="1" data-original="#f5871e"></path>
    <path fill="#fabe19" d="M184 336a8 8 0 0 1-8-8c0-10.553 9.514-30.422 25.45-53.149a8 8 0 1 1 13.1 9.186C198.122 307.466 192 323.437 192 328a8 8 0 0 1-8 8z" opacity="1" data-original="#fabe19"></path>
  </g>
  <g style="" transform="matrix(0.803767, 0, 0, 0.803767, -0.069346, 3.392273)">
    <path d="M2.355.53a.265.265 0 0 0-.162.451L3.97 2.755v.576l-.639.638h-.574L.98 2.194a.265.265 0 0 0-.45.187V4.5a.265.265 0 0 0 .077.185L1.93 6.008a.265.265 0 0 0 .187.077h2.006l6.724 6.724v2.008a.265.265 0 0 0 .079.187l1.322 1.323a.265.265 0 0 0 .187.078h2.118a.265.265 0 0 0 .185-.453l-1.773-1.774v-.574l.638-.64h.575l1.775 1.775a.265.265 0 0 0 .451-.188v-2.115a.265.265 0 0 0-.078-.187l-1.322-1.325a.265.265 0 0 0-.188-.076h-2.005L6.086 4.123V2.116a.265.265 0 0 0-.078-.186L4.686.606A.265.265 0 0 0 4.498.53H2.38a.265.265 0 0 0-.026 0z" opacity="1" data-original="#33658a" class="" style="fill: rgb(153, 156, 157);"></path>
    <path d="M15.316.53a.272.272 0 0 0-.09.027l-2.644 1.322a.265.265 0 0 0-.146.237v.949L5.898 9.602l1.432 1.434 6.537-6.538h.95c.1 0 .191-.056.236-.146l1.324-2.647a.265.265 0 0 0-.05-.304l-.794-.795a.265.265 0 0 0-.217-.076z" opacity="1" data-original="#dbe9ee" style="fill: rgb(219, 231, 235);"></path>
    <path fill="#33b9ef" d="M5.553 8.995a.265.265 0 0 0-.184.078L1.092 13.35c-.718.717-.76 1.864-.067 2.557.693.693 1.84.65 2.557-.067l4.277-4.277a.265.265 0 0 0 0-.373L5.744 9.073a.265.265 0 0 0-.191-.078z" opacity="1" data-original="#33b9ef" class=""></path>
    <path fill="#2fa9da" d="m4.575 9.867 2.49 2.49.794-.794a.265.265 0 0 0 0-.373L5.744 9.072a.265.265 0 0 0-.191-.078.265.265 0 0 0-.184.078z" opacity="1" data-original="#2fa9da"></path>
  </g>
</svg>